<?xml version="1.0" encoding="utf-8"?>
<!-- Generator: Adobe Illustrator 25.4.0, SVG Export Plug-In . SVG Version: 6.00 Build 0)  -->
<svg version="1.1" id="Layer_1" xmlns="http://www.w3.org/2000/svg" xmlns:xlink="http://www.w3.org/1999/xlink" x="0px" y="0px"
	 viewBox="0 0 24 24" style="enable-background:new 0 0 24 24;" xml:space="preserve">
<style type="text/css">
	.st0{fill-rule:evenodd;clip-rule:evenodd;fill:#576772;}
</style>
<g id="icon__x2F__ionicons__x2F__outline__x2F__arrow-back-outline">
	<path id="Vector__x28_Stroke_x29_" class="st0" d="M12.2,4.5c0.4,0.4,0.4,1.2,0,1.6l-6,6l6,6c0.4,0.4,0.4,1.2,0,1.6
		c-0.4,0.4-1.2,0.4-1.6,0l-6.8-6.7c-0.4-0.4-0.4-1.2,0-1.6l6.8-6.8C11.1,4,11.8,4,12.2,4.5z"/>
	<path id="Vector__x28_Stroke_x29__x5F_2" class="st0" d="M4.5,12c0-0.6,0.5-1.1,1.1-1.1h13.7c0.6,0,1.1,0.5,1.1,1.1
		s-0.5,1.1-1.1,1.1H5.6C5,13.1,4.5,12.6,4.5,12z"/>
</g>
</svg>
