<?xml version="1.0" encoding="utf-8"?>
<!-- Generator: Adobe Illustrator 25.4.0, SVG Export Plug-In . SVG Version: 6.00 Build 0)  -->
<svg version="1.1" id="Layer_1" xmlns="http://www.w3.org/2000/svg" xmlns:xlink="http://www.w3.org/1999/xlink" x="0px" y="0px"
	 viewBox="0 0 24 24" style="enable-background:new 0 0 24 24;" xml:space="preserve">
<style type="text/css">
	.st0{fill:#576772;}
</style>
<g id="icon__x2F__ionicons__x2F__sharp__x2F__rocket-sharp">
	<path id="Vector" class="st0" d="M22.4,1.8c0,0,0-0.1-0.1-0.1l-0.1-0.1C19.5,1,13.1,3.3,9.7,6.8C9.1,7.4,8.5,8,8,8.8
		C7,8.7,5.9,8.7,5,9.1c-2.5,1.1-3.3,4-3.5,5.3c0,0.1,0,0.1,0,0.2c0,0.1,0.1,0.1,0.1,0.2c0,0.1,0.1,0.1,0.2,0.1s0.1,0,0.2,0l4.1-0.5
		c0,0.3,0,0.6,0.1,0.9c0,0.2,0.1,0.4,0.3,0.6L8,17.6c0.2,0.2,0.3,0.2,0.6,0.3c0.3,0,0.6,0.1,0.9,0.1L9,22c0,0.1,0,0.1,0,0.2
		s0.1,0.1,0.1,0.2c0.1,0,0.1,0.1,0.2,0.1c0.1,0,0.1,0,0.2,0c1.3-0.2,4.2-0.9,5.3-3.5c0.4-0.9,0.5-2,0.4-3c0.7-0.5,1.4-1.1,2-1.7
		C20.7,10.9,23.1,4.7,22.4,1.8z M13.8,10.2c-0.3-0.3-0.5-0.7-0.6-1.2c-0.1-0.4,0-0.9,0.1-1.3c0.2-0.4,0.5-0.8,0.8-1
		c0.4-0.2,0.8-0.4,1.3-0.4s0.9,0.1,1.3,0.4c0.4,0.2,0.7,0.6,0.8,1c0.2,0.4,0.2,0.9,0.1,1.3c-0.1,0.4-0.3,0.8-0.6,1.2
		c-0.2,0.2-0.5,0.4-0.7,0.5c-0.3,0.1-0.6,0.2-0.9,0.2c-0.3,0-0.6-0.1-0.9-0.2C14.2,10.6,14,10.4,13.8,10.2z"/>
	<path id="Vector_2" class="st0" d="M7.9,18.7c-0.3,0.3-0.7,0.4-1.2,0.4c-1.1,0.2-2.1-0.8-1.9-1.9c0.1-0.4,0.3-1,0.4-1.2l0.1-0.1
		v-0.1c0,0,0-0.1-0.1-0.1H5.1c-0.6,0.1-1.2,0.4-1.6,0.8c-1.1,1.1-1.2,5.2-1.2,5.2s4.1-0.1,5.2-1.2c0.4-0.4,0.7-1,0.8-1.6
		C8.3,18.7,8,18.6,7.9,18.7z"/>
</g>
</svg>
