<?xml version="1.0" encoding="utf-8"?>
<!-- Generator: Adobe Illustrator 25.4.0, SVG Export Plug-In . SVG Version: 6.00 Build 0)  -->
<svg version="1.1" id="Layer_1" xmlns="http://www.w3.org/2000/svg" xmlns:xlink="http://www.w3.org/1999/xlink" x="0px" y="0px"
	 viewBox="0 0 24 24" style="enable-background:new 0 0 24 24;" xml:space="preserve">
<style type="text/css">
	.st0{fill:#576772;}
</style>
<g id="icon__x2F__ionicons__x2F__sharp__x2F__reader-sharp">
	<path id="Vector" class="st0" d="M3.8,2.1v19.9c0,0.1,0.1,0.3,0.2,0.4c0.1,0.1,0.2,0.2,0.4,0.2h15.4c0.1,0,0.3-0.1,0.4-0.2
		c0.1-0.1,0.2-0.2,0.2-0.4V2.1c0-0.1-0.1-0.3-0.2-0.4c-0.1-0.1-0.2-0.2-0.4-0.2H4.3C4.2,1.5,4,1.6,3.9,1.7C3.8,1.8,3.8,1.9,3.8,2.1z
		 M12.8,14.2H7.5v-1.5h5.2V14.2z M16.5,10.5h-9V9h9V10.5z M16.5,6.7h-9V5.2h9V6.7z"/>
</g>
</svg>
