<svg width="24" height="24" viewBox="0 0 24 24" fill="none" xmlns="http://www.w3.org/2000/svg">
<g id="icon / ionicons / sharp / reader-sharp">
<path id="Vector" d="M3.75 2.0625V21.9375C3.75 22.0867 3.80926 22.2298 3.91475 22.3352C4.02024 22.4407 4.16332 22.5 4.3125 22.5H19.6875C19.8367 22.5 19.9798 22.4407 20.0852 22.3352C20.1907 22.2298 20.25 22.0867 20.25 21.9375V2.0625C20.25 1.91332 20.1907 1.77024 20.0852 1.66475C19.9798 1.55926 19.8367 1.5 19.6875 1.5H4.3125C4.16332 1.5 4.02024 1.55926 3.91475 1.66475C3.80926 1.77024 3.75 1.91332 3.75 2.0625ZM12.75 14.25H7.5V12.75H12.75V14.25ZM16.5 10.5H7.5V9H16.5V10.5ZM16.5 6.75H7.5V5.25H16.5V6.75Z" fill="#21272A"/>
</g>
</svg>
