<?xml version="1.0" encoding="utf-8"?>
<!-- Generator: Adobe Illustrator 25.4.0, SVG Export Plug-In . SVG Version: 6.00 Build 0)  -->
<svg version="1.1" id="Layer_1" xmlns="http://www.w3.org/2000/svg" xmlns:xlink="http://www.w3.org/1999/xlink" x="0px" y="0px"
	 viewBox="0 0 24 24" style="enable-background:new 0 0 24 24;" xml:space="preserve">
<style type="text/css">
	.st0{fill:#576772;}
</style>
<g id="icon__x2F__ionicons__x2F__sharp__x2F__bag-check-sharp">
	<path id="Vector" class="st0" d="M21.6,7.5h-4.1V6.9c0-1.4-0.6-2.8-1.5-3.8c-1-1-2.3-1.6-3.8-1.6c0,0-0.1,0-0.1,0s-0.1,0-0.1,0
		c-1.4,0-2.8,0.6-3.8,1.6c-1,1-1.5,2.4-1.5,3.8v0.6H2.4c0,0-0.1,0-0.1,0.1c0,0-0.1,0.1-0.1,0.1v14.1c0,0.2,0.1,0.4,0.2,0.5
		c0.1,0.1,0.3,0.2,0.5,0.2h18c0.2,0,0.4-0.1,0.5-0.2c0.1-0.1,0.2-0.3,0.2-0.5V7.7c0,0,0-0.1-0.1-0.1C21.7,7.5,21.6,7.5,21.6,7.5z
		 M8.4,7c0-2,1.6-3.6,3.5-3.6c0.5,0,0.9,0.1,1.4,0.3c0.4,0.2,0.8,0.4,1.2,0.8c0.3,0.3,0.6,0.7,0.8,1.2c0.2,0.4,0.3,0.9,0.3,1.4v0.6
		H8.4V7z M10.8,18.8l-2.9-3.4l1.1-1l1.7,2l4.1-5.1l1.2,0.9L10.8,18.8z"/>
</g>
</svg>
