<?xml version="1.0" encoding="utf-8"?>
<!-- Generator: Adobe Illustrator 25.4.0, SVG Export Plug-In . SVG Version: 6.00 Build 0)  -->
<svg version="1.1" id="Layer_1" xmlns="http://www.w3.org/2000/svg" xmlns:xlink="http://www.w3.org/1999/xlink" x="0px" y="0px"
	 viewBox="0 0 24 24" style="enable-background:new 0 0 24 24;" xml:space="preserve">
<style type="text/css">
	.st0{fill-rule:evenodd;clip-rule:evenodd;fill:#576772;}
</style>
<g id="icon__x2F__ionicons__x2F__outline__x2F__bag-remove-outline">
	<path id="Vector__x28_Stroke_x29_" class="st0" d="M8.2,15c0-0.4,0.3-0.8,0.8-0.8h6c0.4,0,0.8,0.3,0.8,0.8s-0.3,0.8-0.8,0.8H9
		C8.6,15.7,8.2,15.4,8.2,15z"/>
	<path id="Vector__x28_Stroke_x29__x5F_2" class="st0" d="M2.7,7.9C3,7.7,3.4,7.5,3.8,7.5h16.5c0.4,0,0.8,0.2,1.1,0.4
		c0.3,0.3,0.4,0.7,0.4,1.1v10.2c0,1.9-1.6,3.3-3.4,3.3H5.6c-1.8,0-3.4-1.5-3.4-3.4V9C2.2,8.6,2.4,8.2,2.7,7.9z M20.2,9H3.8v10.1
		c0,1,0.9,1.9,1.9,1.9h12.8c1,0,1.9-0.8,1.9-1.8V9z"/>
	<path id="Vector__x28_Stroke_x29__x5F_3" class="st0" d="M12,3c-1,0-1.9,0.4-2.7,1.1C8.6,4.8,8.2,5.8,8.2,6.7v1.5
		C8.2,8.7,7.9,9,7.5,9S6.8,8.7,6.8,8.2V6.7C6.8,5.4,7.3,4,8.3,3s2.3-1.5,3.7-1.5s2.7,0.6,3.7,1.5s1.5,2.3,1.5,3.7v1.5
		c0,0.4-0.3,0.8-0.8,0.8s-0.8-0.3-0.8-0.8V6.7c0-1-0.4-1.9-1.1-2.7C13.9,3.4,13,3,12,3z"/>
</g>
</svg>
