<svg width="24" height="24" viewBox="0 0 24 24" fill="none" xmlns="http://www.w3.org/2000/svg">
<g id="icon / ionicons / sharp / server-sharp">
<path id="Vector" d="M19.192 18.2752C16.9688 19.2188 14.3156 19.7368 12 19.7368C9.68437 19.7368 7.03734 19.2071 4.8075 18.2752C2.57766 17.3433 2.25 16.5544 2.25 16.5544V18.3451C2.25 19.8052 3.09375 20.3907 5.40562 21.3615C7.17797 22.1058 9.52406 22.5001 12 22.5001C14.4759 22.5001 16.822 22.1058 18.5944 21.3615C20.9062 20.3907 21.75 19.8052 21.75 18.3451V16.5544C21.75 16.5544 21.4153 17.3321 19.192 18.2752Z" fill="#21272A"/>
<path id="Vector_2" d="M2.98557 8.11969C3.51197 8.58094 4.28963 9.03328 5.23557 9.42844C7.22682 10.2609 9.75666 10.7583 12.0024 10.7583C14.2482 10.7583 16.7781 10.2609 18.7693 9.42844C19.7129 9.03328 20.4906 8.58094 21.017 8.11969C21.301 7.87078 21.5256 7.64531 21.6484 7.51734C21.7153 7.44745 21.7526 7.3544 21.7524 7.25766V6.03609V6.03141C21.7131 4.68187 20.5942 3.48094 18.602 2.64984C16.8203 1.90828 14.477 1.5 12.0001 1.5C9.52322 1.5 7.17994 1.90828 5.40291 2.64984C3.41494 3.47906 2.29697 4.67719 2.25244 6.02344V7.25766C2.25221 7.35434 2.28932 7.44737 2.35604 7.51734C2.47697 7.64531 2.70104 7.87078 2.98557 8.11969Z" fill="#21272A"/>
<path id="Vector_3" d="M19.192 10.4019C17.1094 11.2968 14.3156 11.8635 12 11.8635C9.68437 11.8635 6.89672 11.2883 4.80797 10.4019C2.71922 9.51553 2.25 8.68115 2.25 8.68115V10.9012C2.25375 11.2537 2.50781 11.6605 2.98547 12.0791C3.51234 12.5404 4.28953 12.9932 5.23547 13.3879C7.22438 14.2208 9.75422 14.7187 12 14.7187C14.2458 14.7187 16.7756 14.2218 18.7669 13.3888C19.7105 12.9941 20.4881 12.5413 21.0145 12.0801C21.495 11.6582 21.7495 11.2499 21.75 10.8955V8.68115C21.75 8.68115 21.2752 9.50709 19.192 10.4019Z" fill="#21272A"/>
<path id="Vector_4" d="M19.192 14.3616C16.9687 15.2813 14.3156 15.8232 12 15.8232C9.68437 15.8232 6.84984 15.2232 4.80797 14.3616C2.76609 13.5001 2.25 12.6409 2.25 12.6409V14.8088C2.25 15.1627 2.505 15.572 2.98547 15.9929C3.51187 16.4541 4.28906 16.907 5.23547 17.3017C7.22672 18.1346 9.75609 18.6315 12.0023 18.6315C14.2486 18.6315 16.778 18.1346 18.7692 17.3017C19.7128 16.9065 20.4905 16.4541 21.0169 15.9929C21.4945 15.5743 21.7486 15.1674 21.7523 14.8149V12.6409C21.7523 12.6409 21.4158 13.442 19.192 14.3616Z" fill="#21272A"/>
</g>
</svg>
