<?xml version="1.0" encoding="utf-8"?>
<!-- Generator: Adobe Illustrator 25.4.0, SVG Export Plug-In . SVG Version: 6.00 Build 0)  -->
<svg version="1.1" id="Layer_1" xmlns="http://www.w3.org/2000/svg" xmlns:xlink="http://www.w3.org/1999/xlink" x="0px" y="0px"
	 viewBox="0 0 24 24" style="enable-background:new 0 0 24 24;" xml:space="preserve">
<style type="text/css">
	.st0{fill:#576772;}
</style>
<g id="icon__x2F__ionicons__x2F__sharp__x2F__server-sharp">
	<path id="Vector" class="st0" d="M19.2,18.3c-2.2,0.9-4.9,1.5-7.2,1.5c-2.3,0-5-0.5-7.2-1.5s-2.6-1.7-2.6-1.7v1.8
		c0,1.5,0.8,2,3.2,3c1.8,0.7,4.1,1.1,6.6,1.1c2.5,0,4.8-0.4,6.6-1.1c2.3-1,3.2-1.6,3.2-3v-1.8C21.8,16.6,21.4,17.3,19.2,18.3z"/>
	<path id="Vector_2" class="st0" d="M3,8.1C3.5,8.6,4.3,9,5.2,9.4c2,0.8,4.5,1.3,6.8,1.3c2.2,0,4.8-0.5,6.8-1.3
		C19.7,9,20.5,8.6,21,8.1c0.3-0.2,0.5-0.5,0.6-0.6c0.1-0.1,0.1-0.2,0.1-0.3V6v0c0-1.3-1.2-2.6-3.2-3.4c-1.8-0.7-4.1-1.1-6.6-1.1
		c-2.5,0-4.8,0.4-6.6,1.1c-2,0.8-3.1,2-3.2,3.4v1.2c0,0.1,0,0.2,0.1,0.3C2.5,7.6,2.7,7.9,3,8.1z"/>
	<path id="Vector_3" class="st0" d="M19.2,10.4c-2.1,0.9-4.9,1.5-7.2,1.5c-2.3,0-5.1-0.6-7.2-1.5C2.7,9.5,2.2,8.7,2.2,8.7v2.2
		c0,0.4,0.3,0.8,0.7,1.2c0.5,0.5,1.3,0.9,2.2,1.3c2,0.8,4.5,1.3,6.8,1.3c2.2,0,4.8-0.5,6.8-1.3c0.9-0.4,1.7-0.8,2.2-1.3
		c0.5-0.4,0.7-0.8,0.7-1.2V8.7C21.8,8.7,21.3,9.5,19.2,10.4z"/>
	<path id="Vector_4" class="st0" d="M19.2,14.4c-2.2,0.9-4.9,1.5-7.2,1.5c-2.3,0-5.2-0.6-7.2-1.5c-2-0.9-2.6-1.7-2.6-1.7v2.2
		c0,0.4,0.3,0.8,0.7,1.2c0.5,0.5,1.3,0.9,2.2,1.3c2,0.8,4.5,1.3,6.8,1.3c2.2,0,4.8-0.5,6.8-1.3c0.9-0.4,1.7-0.8,2.2-1.3
		c0.5-0.4,0.7-0.8,0.7-1.2v-2.2C21.8,12.6,21.4,13.4,19.2,14.4z"/>
</g>
</svg>
