<svg width="24" height="24" viewBox="0 0 24 24" fill="none" xmlns="http://www.w3.org/2000/svg">
<g id="icon / ionicons / outline / bag-remove-outline">
<path id="Vector (Stroke)" fill-rule="evenodd" clip-rule="evenodd" d="M8.25 15C8.25 14.5858 8.58579 14.25 9 14.25H15C15.4142 14.25 15.75 14.5858 15.75 15C15.75 15.4142 15.4142 15.75 15 15.75H9C8.58579 15.75 8.25 15.4142 8.25 15Z" fill="#21272A"/>
<path id="Vector (Stroke)_2" fill-rule="evenodd" clip-rule="evenodd" d="M2.68934 7.93934C2.97064 7.65804 3.35217 7.5 3.75 7.5H20.25C20.6478 7.5 21.0294 7.65804 21.3107 7.93934C21.592 8.22065 21.75 8.60218 21.75 9V19.1836C21.75 21.0371 20.1846 22.5 18.375 22.5H5.625C3.79329 22.5 2.25 20.9567 2.25 19.125V9C2.25 8.60217 2.40804 8.22064 2.68934 7.93934ZM20.25 9L3.75 9L3.75 19.125C3.75 20.1283 4.62171 21 5.625 21H18.375C19.4004 21 20.25 20.1651 20.25 19.1836V9Z" fill="#21272A"/>
<path id="Vector (Stroke)_3" fill-rule="evenodd" clip-rule="evenodd" d="M12 3C11.0054 3 10.0516 3.39509 9.34835 4.09835C8.64509 4.80161 8.25 5.75544 8.25 6.75V8.25C8.25 8.66421 7.91421 9 7.5 9C7.08579 9 6.75 8.66421 6.75 8.25V6.75C6.75 5.35761 7.30312 4.02226 8.28769 3.03769C9.27226 2.05312 10.6076 1.5 12 1.5C13.3924 1.5 14.7277 2.05312 15.7123 3.03769C16.6969 4.02226 17.25 5.35761 17.25 6.75V8.25C17.25 8.66421 16.9142 9 16.5 9C16.0858 9 15.75 8.66421 15.75 8.25V6.75C15.75 5.75544 15.3549 4.80161 14.6517 4.09835C13.9484 3.39509 12.9946 3 12 3Z" fill="#21272A"/>
</g>
</svg>
