<?xml version="1.0" encoding="utf-8"?>
<!-- Generator: Adobe Illustrator 25.4.0, SVG Export Plug-In . SVG Version: 6.00 Build 0)  -->
<svg version="1.1" id="Layer_1" xmlns="http://www.w3.org/2000/svg" xmlns:xlink="http://www.w3.org/1999/xlink" x="0px" y="0px"
	 viewBox="0 0 24 24" style="enable-background:new 0 0 24 24;" xml:space="preserve">
<style type="text/css">
	.st0{fill-rule:evenodd;clip-rule:evenodd;fill:#FFFFFF;}
</style>
<g id="icon__x2F__ionicons__x2F__outline__x2F__exit-outline">
	<path id="Vector__x28_Stroke_x29_" class="st0" d="M21.7,19.5c-0.5,0.5-1.2,0.8-1.9,0.8h-9c-0.7,0-1.4-0.3-1.9-0.8
		c-0.5-0.5-0.8-1.2-0.8-1.9v-1.9C8.2,15.3,8.6,15,9,15s0.8,0.3,0.8,0.8v1.9c0,0.3,0.1,0.6,0.3,0.8c0.2,0.2,0.5,0.3,0.8,0.3h9
		c0.3,0,0.6-0.1,0.8-0.3c0.2-0.2,0.3-0.5,0.3-0.8V6.4c0-0.3-0.1-0.6-0.3-0.8c-0.2-0.2-0.5-0.3-0.8-0.3h-9c-0.3,0-0.6,0.1-0.8,0.3
		C9.9,5.8,9.8,6.1,9.8,6.4v1.9C9.8,8.7,9.4,9,9,9S8.2,8.7,8.2,8.2V6.4C8.2,5.7,8.5,5,9,4.5c0.5-0.5,1.2-0.8,1.9-0.8h9
		c0.7,0,1.4,0.3,1.9,0.8c0.5,0.5,0.8,1.2,0.8,1.9v11.2C22.5,18.3,22.2,19,21.7,19.5z"/>
	<path id="Vector__x28_Stroke_x29__x5F_2" class="st0" d="M6.5,16.3c-0.3,0.3-0.8,0.3-1.1,0l-3.8-3.8c-0.3-0.3-0.3-0.8,0-1.1
		l3.8-3.8c0.3-0.3,0.8-0.3,1.1,0c0.3,0.3,0.3,0.8,0,1.1L3.3,12l3.2,3.2C6.8,15.5,6.8,16,6.5,16.3z"/>
	<path id="Vector__x28_Stroke_x29__x5F_3" class="st0" d="M15.8,12c0,0.4-0.3,0.8-0.8,0.8H2.2c-0.4,0-0.8-0.3-0.8-0.8
		s0.3-0.8,0.8-0.8H15C15.5,11.2,15.8,11.6,15.8,12z"/>
</g>
</svg>
