<?xml version="1.0" encoding="utf-8"?>
<!-- Generator: Adobe Illustrator 25.4.0, SVG Export Plug-In . SVG Version: 6.00 Build 0)  -->
<svg version="1.1" id="Layer_1" xmlns="http://www.w3.org/2000/svg" xmlns:xlink="http://www.w3.org/1999/xlink" x="0px" y="0px"
	 viewBox="0 0 24 24" style="enable-background:new 0 0 24 24;" xml:space="preserve">
<style type="text/css">
	.st0{fill-rule:evenodd;clip-rule:evenodd;fill:#6E7F8D;}
</style>
<g id="icon__x2F__ionicons__x2F__outline__x2F__storefront-outline">
	<path id="Vector__x28_Stroke_x29_" class="st0" d="M21,10.5c0.4,0,0.8,0.3,0.8,0.8V21c0,0.4-0.3,0.8-0.8,0.8s-0.8-0.3-0.8-0.8v-9.7
		C20.2,10.8,20.6,10.5,21,10.5z"/>
	<path id="Vector__x28_Stroke_x29__x5F_2" class="st0" d="M3,10.5c0.4,0,0.8,0.3,0.8,0.8V21c0,0.4-0.3,0.8-0.8,0.8S2.2,21.4,2.2,21
		v-9.7C2.2,10.8,2.6,10.5,3,10.5z"/>
	<path id="Vector__x28_Stroke_x29__x5F_3" class="st0" d="M3,3.4c0.5-1.2,1.7-1.9,3-1.9h11.9c1.3,0,2.5,0.7,3,1.9l0,0l2,4.4
		c0,0,0,0,0,0c0.9,2-0.7,4.2-2.9,4.3c0,0,0,0,0,0H20c-1.1,0-2-0.5-2.7-1.2c-0.6,0.7-1.6,1.2-2.7,1.2c-1.1,0-2-0.5-2.6-1.2
		c-0.6,0.7-1.6,1.2-2.7,1.2c-1.1,0-2-0.5-2.7-1.2C6,11.6,5.1,12.1,4,12.1H3.9c0,0,0,0,0,0C1.7,12,0.1,9.8,1,7.8c0,0,0,0,0,0L3,3.4z
		 M7.4,8.9c0,0.8,0.8,1.7,1.9,1.7c1.1,0,1.9-0.8,1.9-1.7c0-0.4,0.3-0.8,0.8-0.8s0.8,0.3,0.8,0.8c0,0.8,0.8,1.7,1.9,1.7
		c1.1,0,1.9-0.8,1.9-1.7c0-0.4,0.3-0.8,0.8-0.8c0.4,0,0.8,0.3,0.8,0.8c0,0.9,0.8,1.7,1.9,1.7h0.1c1.3,0,2-1.2,1.5-2.2l0,0l-2-4.4
		c0,0,0,0,0,0c-0.3-0.6-0.9-1-1.7-1H6.1C5.3,3,4.7,3.4,4.4,4c0,0,0,0,0,0l-2,4.4C2,9.4,2.6,10.5,3.9,10.6H4c1.1,0,1.9-0.9,1.9-1.7
		c0-0.4,0.3-0.8,0.8-0.8C7.1,8.1,7.4,8.5,7.4,8.9z"/>
	<path id="Vector__x28_Stroke_x29__x5F_4" class="st0" d="M0.8,21.7c0-0.4,0.3-0.8,0.8-0.8h21c0.4,0,0.8,0.3,0.8,0.8
		s-0.3,0.8-0.8,0.8h-21C1.1,22.5,0.8,22.2,0.8,21.7z"/>
	<path id="Vector__x28_Stroke_x29__x5F_5" class="st0" d="M6.4,14.2c-0.1,0-0.2,0-0.3,0.1C6,14.4,6,14.5,6,14.6V18h4.5v-3.4
		c0-0.1,0-0.2-0.1-0.3c-0.1-0.1-0.2-0.1-0.3-0.1H6.4z M5,13.3c0.4-0.4,0.8-0.5,1.3-0.5h3.8c0.5,0,1,0.2,1.3,0.5
		c0.4,0.4,0.5,0.8,0.5,1.3v4.1c0,0.4-0.3,0.8-0.8,0.8h-6c-0.4,0-0.8-0.3-0.8-0.8v-4.1C4.5,14.1,4.7,13.7,5,13.3z"/>
	<path id="Vector__x28_Stroke_x29__x5F_6" class="st0" d="M14.6,14.2c-0.1,0-0.2,0-0.3,0.1c-0.1,0.1-0.1,0.2-0.1,0.3v7.1
		c0,0.4-0.3,0.8-0.8,0.8s-0.8-0.3-0.8-0.8v-7.1c0-0.5,0.2-1,0.5-1.3c0.4-0.4,0.8-0.5,1.3-0.5h3c0.5,0,1,0.2,1.3,0.5
		c0.4,0.4,0.5,0.8,0.5,1.3v7.1c0,0.4-0.3,0.8-0.8,0.8S18,22.2,18,21.7v-7.1c0-0.1,0-0.2-0.1-0.3c-0.1-0.1-0.2-0.1-0.3-0.1H14.6z"/>
</g>
</svg>
