<?xml version="1.0" standalone="no"?>
<!DOCTYPE svg PUBLIC "-//W3C//DTD SVG 20010904//EN"
 "http://www.w3.org/TR/2001/REC-SVG-20010904/DTD/svg10.dtd">
<svg version="1.0" xmlns="http://www.w3.org/2000/svg"
 width="300.000000pt" height="300.000000pt" viewBox="0 0 300.000000 300.000000"
 preserveAspectRatio="xMidYMid meet">
<metadata>
Created by potrace 1.14, written by Peter Selinger 2001-2017
</metadata>
<g transform="translate(0.000000,300.000000) scale(0.100000,-0.100000)"
fill="#000000" stroke="none">
<path d="M1360 2664 c-107 -23 -110 -24 -110 -39 0 -10 11 -15 35 -15 l35 0 0
-360 0 -359 -35 -7 c-20 -3 -35 -12 -35 -20 0 -11 28 -14 145 -14 119 0 145 3
145 14 0 9 -12 16 -27 18 l-28 3 -3 206 -2 205 39 22 c53 30 94 29 120 -4 20
-25 21 -40 21 -225 l0 -197 -30 -7 c-16 -4 -30 -13 -30 -21 0 -11 26 -14 140
-14 115 0 140 3 140 14 0 9 -12 16 -27 18 l-28 3 -5 210 c-5 229 -11 253 -71
298 -61 45 -175 29 -234 -33 -16 -17 -33 -30 -38 -30 -6 0 -7 67 -2 175 l7
175 -29 -1 c-15 -1 -57 -7 -93 -15z"/>
<path d="M570 2572 c0 -16 -3 -63 -6 -105 l-7 -77 32 0 c17 0 33 6 36 13 2 6
13 45 25 85 l21 72 63 0 63 0 6 -122 c4 -66 7 -162 7 -213 0 -51 -3 -147 -7
-213 l-6 -122 -44 0 c-36 0 -43 -3 -43 -20 0 -19 7 -20 181 -20 166 0 180 1
177 18 -2 12 -16 18 -48 22 l-45 5 -3 333 -2 332 68 0 67 0 24 -85 c22 -82 24
-85 52 -85 l29 0 0 105 0 105 -320 0 -320 0 0 -28z"/>
<path d="M2109 2405 c-132 -42 -209 -192 -179 -350 24 -125 107 -206 229 -221
100 -12 182 19 237 91 37 50 20 63 -26 21 -96 -86 -226 -45 -264 83 -9 30 -16
65 -16 78 l0 23 165 0 c192 0 185 -4 167 99 -20 119 -90 183 -207 188 -33 1
-81 -4 -106 -12z m144 -57 c28 -37 35 -129 13 -163 -15 -23 -22 -25 -96 -25
l-80 0 0 28 c0 53 28 143 51 168 32 34 84 30 112 -8z"/>
<path d="M132 1333 c2 -12 14 -19 34 -21 l30 -3 101 -352 100 -352 45 -3 46
-3 20 68 c11 37 46 158 78 268 31 110 60 203 63 207 3 4 42 -117 85 -268 l79
-274 47 0 46 0 94 341 c52 188 101 348 108 355 7 8 29 14 48 14 27 0 34 4 34
20 0 19 -7 20 -115 20 -108 0 -115 -1 -115 -20 0 -16 7 -20 34 -20 19 0 38 -5
41 -11 7 -11 -114 -513 -122 -505 -9 9 -141 501 -136 509 2 4 24 7 49 7 37 0
44 3 44 20 0 19 -7 20 -161 20 -147 0 -160 -1 -157 -17 2 -13 15 -19 46 -21
23 -2 42 -8 42 -15 0 -21 -133 -497 -139 -497 -4 0 -33 107 -65 238 -33 130
-61 245 -64 254 -3 13 4 17 39 20 32 2 45 8 47 21 3 16 -10 17 -163 17 -153 0
-166 -1 -163 -17z"/>
<path d="M1395 1161 c-86 -22 -138 -72 -139 -133 -1 -35 3 -44 25 -56 60 -35
109 16 109 113 l0 45 50 0 c66 0 83 -25 88 -127 4 -61 2 -73 -11 -73 -34 0
-189 -59 -223 -85 -117 -89 -64 -265 80 -265 44 0 114 30 141 60 18 20 18 20
37 -10 29 -49 96 -64 161 -37 32 14 66 61 54 74 -4 3 -17 -3 -30 -15 -16 -15
-27 -18 -37 -12 -12 8 -16 48 -20 217 -6 230 -11 252 -73 288 -34 20 -160 30
-212 16z m135 -365 c0 -104 0 -105 -29 -125 -37 -26 -75 -27 -101 -1 -29 29
-30 105 -2 153 18 31 86 77 115 77 15 0 17 -12 17 -104z"/>
<path d="M2539 1155 c-132 -42 -209 -192 -179 -350 24 -125 107 -206 229 -221
100 -12 182 19 237 91 37 50 20 63 -26 21 -96 -86 -226 -45 -264 83 -9 30 -16
65 -16 78 l0 23 165 0 c192 0 185 -4 167 99 -20 119 -90 183 -207 188 -33 1
-81 -4 -106 -12z m144 -57 c28 -37 35 -129 13 -163 -15 -23 -22 -25 -96 -25
l-80 0 0 28 c0 53 28 143 51 168 32 34 84 30 112 -8z"/>
<path d="M1740 1136 c0 -7 14 -17 31 -22 30 -9 35 -19 127 -261 l97 -253 37 0
c21 0 38 4 38 9 0 5 41 120 91 254 l91 245 34 6 c20 4 34 13 34 21 0 12 -19
15 -95 15 -74 0 -95 -3 -95 -14 0 -8 15 -17 36 -21 27 -5 35 -10 31 -23 -22
-80 -102 -322 -107 -322 -3 0 -30 73 -60 162 -30 89 -56 165 -58 169 -2 4 13
11 32 15 21 3 36 12 36 20 0 11 -29 14 -150 14 -120 0 -150 -3 -150 -14z"/>
</g>
</svg>
